<?xml version="1.0" encoding="UTF-8"?>
<svg version="1.1" xmlns="http://www.w3.org/2000/svg" width="512" height="450">
<path d="M0 0 C3.9375 0.5625 3.9375 0.5625 5.671875 2.20703125 C7.30362364 5.24389678 7.23675514 7.38534235 7.125 10.8125 C7.09792969 11.89015625 7.07085937 12.9678125 7.04296875 14.078125 C6.99076172 15.30789063 6.99076172 15.30789063 6.9375 16.5625 C7.61554688 16.53929687 8.29359375 16.51609375 8.9921875 16.4921875 C25.13760057 16.17911855 40.34859608 21.3034276 52.5390625 32.12109375 C65.53715763 45.35205378 70.20504326 60.58112222 70.11328125 78.75 C70.09652344 80.049375 70.07976562 81.34875 70.0625 82.6875 C70.05244282 84.03905581 70.04332184 85.39061893 70.03515625 86.7421875 C70.01177319 90.01581558 69.97900061 93.28905994 69.9375 96.5625 C71.02417969 96.67980469 72.11085938 96.79710938 73.23046875 96.91796875 C78.15313166 97.77385851 79.46427769 99.08927769 82.9375 102.5625 C85.50373712 106.2749811 85.2060505 110.20164489 85.16455078 114.54394531 C85.16484283 115.3443222 85.16513489 116.1446991 85.16543579 116.96932983 C85.16404455 119.60987256 85.14849308 122.25013168 85.1328125 124.890625 C85.12908164 126.72336676 85.12623501 128.55611051 85.12423706 130.38885498 C85.11660637 135.20904054 85.09696269 140.02910529 85.0748291 144.84924316 C85.05435855 149.76927048 85.04523275 154.68931735 85.03515625 159.609375 C85.01371628 169.26047825 84.9785387 178.91146017 84.9375 188.5625 C95.4975 188.2325 106.0575 187.9025 116.9375 187.5625 C112.42531417 182.80125456 112.42531417 182.80125456 107.90283203 178.04980469 C107.33935059 177.45071289 106.77586914 176.85162109 106.1953125 176.234375 C105.6192627 175.6269043 105.04321289 175.01943359 104.44970703 174.39355469 C101.95270186 171.37005795 100.90083573 169.46077459 101.0625 165.5 C102.10259032 162.00826821 102.85345523 161.3815637 105.9375 159.5625 C108.734375 159.05078125 108.734375 159.05078125 111.6875 158.875 C112.67234375 158.80925781 113.6571875 158.74351562 114.671875 158.67578125 C115.41953125 158.63839844 116.1671875 158.60101563 116.9375 158.5625 C116.08478516 157.63630859 116.08478516 157.63630859 115.21484375 156.69140625 C112.76399502 154.00324662 110.34691262 151.28783876 107.9375 148.5625 C107.21433594 147.76328125 106.49117188 146.9640625 105.74609375 146.140625 C101.00337064 140.58349489 101.00337064 140.58349489 100.6875 135.6875 C101.9375 132.5625 101.9375 132.5625 103.875 130.6875 C108.16653432 129.111018 112.39520748 128.81827958 116.9375 128.5625 C116.4528125 128.10101563 115.968125 127.63953125 115.46875 127.1640625 C101.14921022 113.23004879 101.14921022 113.23004879 100.625 106.625 C102.21074104 102.92493757 103.37477889 102.29231902 106.9375 100.5625 C109.44688511 100.18776989 109.44688511 100.18776989 112.14344788 100.1882782 C113.17106735 100.18126389 114.19868683 100.17424957 115.25744629 100.16702271 C116.37397583 100.17466644 117.49050537 100.18231018 118.64086914 100.19018555 C119.82510971 100.18653488 121.00935028 100.18288422 122.22947693 100.17912292 C125.46915113 100.17241428 128.70844919 100.17911851 131.9480927 100.19245505 C135.34148899 100.20379177 138.73487084 100.1996604 142.12828064 100.19770813 C147.82523542 100.19682597 153.52207102 100.20789005 159.21899414 100.22631836 C165.80318752 100.24749499 172.38720648 100.25099325 178.97142702 100.2447564 C185.30980102 100.23906011 191.64811366 100.24471086 197.98647881 100.25592995 C200.68216526 100.2605714 203.37781414 100.26145177 206.07350349 100.2593441 C209.83694648 100.25897409 213.60012244 100.27157568 217.36352539 100.2878418 C219.04135605 100.28412567 219.04135605 100.28412567 220.75308228 100.28033447 C221.77788193 100.28741928 222.80268158 100.29450409 223.85853577 100.30180359 C225.1927688 100.30488289 225.1927688 100.30488289 226.55395603 100.30802441 C229.13803518 100.58390985 230.75122872 101.17347811 232.9375 102.5625 C234.51783194 105.72316388 234.30064085 108.06908504 233.9375 111.5625 C232.2334879 113.91873742 230.73859328 115.69903552 228.6875 117.6875 C227.70176065 118.6887628 226.71736583 119.6913512 225.734375 120.6953125 C225.26064453 121.17129883 224.78691406 121.64728516 224.29882812 122.13769531 C222.36276693 124.16403196 220.64496144 126.34280013 218.9375 128.5625 C219.76894531 128.67207031 220.60039062 128.78164062 221.45703125 128.89453125 C222.54371094 129.05308594 223.63039063 129.21164063 224.75 129.375 C225.82894531 129.52582031 226.90789062 129.67664063 228.01953125 129.83203125 C231.0381422 130.58769423 232.16120605 131.05762446 233.9375 133.5625 C234.62459013 137.06665964 234.71151541 139.40027126 232.68359375 142.4453125 C230.83791577 144.56077635 228.90299398 146.55783856 226.9375 148.5625 C225.28517878 150.38998818 223.63937584 152.22339007 222 154.0625 C220.64638678 155.56299946 219.29241884 157.06317938 217.9375 158.5625 C218.75734375 158.58828125 219.5771875 158.6140625 220.421875 158.640625 C221.49953125 158.69734375 222.5771875 158.7540625 223.6875 158.8125 C224.75484375 158.85890625 225.8221875 158.9053125 226.921875 158.953125 C230.6050064 159.69738471 231.84109753 160.44842642 233.9375 163.5625 C234.5582137 166.9565307 234.74492201 169.27480111 232.86132812 172.27880859 C231.38180848 174.03381439 229.82658932 175.64331128 228.1875 177.25 C227.37925781 178.08241211 227.37925781 178.08241211 226.5546875 178.93164062 C225.03228097 180.49303561 223.48960967 182.03070318 221.9375 183.5625 C221.14859375 184.35269531 220.3596875 185.14289063 219.546875 185.95703125 C219.01578125 186.48683594 218.4846875 187.01664063 217.9375 187.5625 C218.56205078 187.57708252 219.18660156 187.59166504 219.83007812 187.60668945 C222.69979552 187.68183102 225.56843237 187.77826935 228.4375 187.875 C229.41976563 187.89755859 230.40203125 187.92011719 231.4140625 187.94335938 C239.44022275 188.23765192 246.52230718 189.27612471 252.4375 195.25 C255.97849826 199.48804516 256.66278884 203.35617114 256.6875 208.75 C256.69233398 209.76549927 256.69233398 209.76549927 256.69726562 210.80151367 C256.42716862 216.92146169 253.97697115 220.68403973 249.5625 224.75 C246.79494303 226.66093219 243.95502985 228.08698609 240.9375 229.5625 C240.94026538 230.25418966 240.94303076 230.94587933 240.94587994 231.65852928 C241.01224608 248.51932412 241.06183217 265.38007737 241.09293652 282.24097252 C241.10837966 290.39490842 241.12942012 298.54875693 241.16381836 306.70263672 C241.19379915 313.81280282 241.21309354 320.92290559 241.21976548 328.03313315 C241.2236631 331.79501986 241.23276923 335.55672548 241.25469017 339.31855392 C241.27519283 342.86604507 241.28130629 346.4132821 241.27682304 349.96082687 C241.27802996 351.8697714 241.29409952 353.77868884 241.3107605 355.68756104 C241.26963449 367.23628606 239.40802937 375.08476865 231.27734375 383.4921875 C224.89171648 389.14224168 217.33906536 389.70945475 209.0625 389.625 C207.91007812 389.61597656 206.75765625 389.60695313 205.5703125 389.59765625 C204.70148438 389.58605469 203.83265625 389.57445312 202.9375 389.5625 C202.94749275 390.42574387 202.94749275 390.42574387 202.95768738 391.306427 C203.02417725 397.3087199 203.06935721 403.31090775 203.10229492 409.31347656 C203.11735964 411.55212658 203.13781533 413.79074719 203.16381836 416.02929688 C203.20030283 419.25137602 203.21724983 422.47306411 203.23046875 425.6953125 C203.24595261 426.69241241 203.26143646 427.68951233 203.27738953 428.71682739 C203.27895843 435.22887692 202.40184276 439.3907721 198.31640625 444.64892578 C193.49097453 449.25513762 189.73897193 450.46079823 183.09375 450.51953125 C182.0521875 450.49246094 181.010625 450.46539062 179.9375 450.4375 C178.8959375 450.46457031 177.854375 450.49164063 176.78125 450.51953125 C170.13602807 450.46079823 166.38402547 449.25513762 161.55859375 444.64892578 C149.31846893 428.89529525 156.9375 410.31104422 156.9375 389.5625 C54.9675 389.5625 -47.0025 389.5625 -152.0625 389.5625 C-152.0625 404.7425 -152.0625 419.9225 -152.0625 435.5625 C-157.66817246 446.77384492 -157.66817246 446.77384492 -163.0625 449.5625 C-167.04825713 450.44838597 -170.86595424 450.51407982 -174.9375 450.4375 C-176.0114502 450.4274292 -177.08540039 450.4173584 -178.19189453 450.40698242 C-184.02722721 450.18364824 -188.3594178 449.84317322 -192.9375 445.875 C-196.61587219 441.64726053 -198.31970736 437.27446487 -198.28955078 431.68041992 C-198.28939972 430.73982224 -198.28924866 429.79922455 -198.28909302 428.8301239 C-198.27877045 427.8278627 -198.26844788 426.8256015 -198.2578125 425.79296875 C-198.2549826 424.75682938 -198.25215271 423.72069 -198.24923706 422.65315247 C-198.23806454 419.35198293 -198.21296505 416.05108719 -198.1875 412.75 C-198.17746643 410.50846747 -198.16834124 408.26693067 -198.16015625 406.02539062 C-198.13813478 400.5376674 -198.10468621 395.05010326 -198.0625 389.5625 C-199.01656738 389.57047607 -199.97063477 389.57845215 -200.95361328 389.58666992 C-202.20899902 389.59287354 -203.46438477 389.59907715 -204.7578125 389.60546875 C-206.00062988 389.61344482 -207.24344727 389.6214209 -208.52392578 389.62963867 C-217.31211701 389.46289708 -224.60797832 387.17505349 -230.82421875 380.73828125 C-237.62374875 372.35823096 -237.34046731 363.43413274 -237.25439453 353.06567383 C-237.25059029 351.71302016 -237.24778462 350.36036338 -237.24589539 349.00770569 C-237.24047668 346.10924446 -237.22952516 343.21087619 -237.21463394 340.3124485 C-237.19260857 335.72752261 -237.19225908 331.14275281 -237.19650269 326.55778503 C-237.1976958 324.98469641 -237.19886481 323.41160776 -237.2000103 321.8385191 C-237.20059055 321.05118904 -237.2011708 320.26385899 -237.20176864 319.45267045 C-237.20778594 308.78837902 -237.1952802 298.12436914 -237.14160156 287.46020508 C-237.10548908 280.25134266 -237.09770031 273.0430467 -237.12209976 265.8341276 C-237.13378666 262.02350174 -237.13070352 258.21414532 -237.09259415 254.40366554 C-237.0568929 250.82351003 -237.05819979 247.24528329 -237.08782387 243.66509056 C-237.09405615 241.72775827 -237.06057029 239.79042552 -237.02589417 237.85339355 C-236.90521829 231.76672702 -236.90521829 231.76672702 -239.80451584 226.74443626 C-241.88525845 225.38460805 -241.88525845 225.38460805 -244.05853081 224.46815014 C-247.57548561 222.87873918 -248.98636877 220.80917378 -251.0625 217.5625 C-251.80532819 214.76107808 -251.92125997 212.13932085 -251.875 209.25 C-251.86726562 208.49960449 -251.85953125 207.74920898 -251.8515625 206.97607422 C-251.55158023 201.0087545 -249.88114902 197.49694803 -245.59375 193.2265625 C-238.05291483 188.2691616 -230.86039984 188.05136111 -222.0625 187.875 C-220.90621094 187.84083984 -219.74992187 187.80667969 -218.55859375 187.77148438 C-215.72665954 187.68956892 -212.89501299 187.62023478 -210.0625 187.5625 C-210.38781708 186.84197952 -210.71313416 186.12145905 -211.04830933 185.37910461 C-212.07917765 182.51618293 -212.30516626 180.51842212 -212.28955078 177.49682617 C-212.28939972 176.51618698 -212.28924866 175.53554779 -212.28909302 174.52519226 C-212.27877045 173.4791835 -212.26844788 172.43317474 -212.2578125 171.35546875 C-212.2549826 170.27493729 -212.25215271 169.19440582 -212.24923706 168.08113098 C-212.23806132 164.63730699 -212.21296118 161.19374511 -212.1875 157.75 C-212.17746685 155.41211314 -212.16834158 153.07422219 -212.16015625 150.73632812 C-212.1381305 145.01162965 -212.10467868 139.28708355 -212.0625 133.5625 C-212.88234375 133.58570313 -213.7021875 133.60890625 -214.546875 133.6328125 C-215.62453125 133.65085938 -216.7021875 133.66890625 -217.8125 133.6875 C-218.87984375 133.71070313 -219.9471875 133.73390625 -221.046875 133.7578125 C-224.01272828 133.56572356 -225.61454664 133.19828192 -228.0625 131.5625 C-229.58741998 128.51266004 -229.29812548 125.9201631 -229.0625 122.5625 C-227.94799805 120.87182617 -227.94799805 120.87182617 -226.0625 119.5625 C-223.15161133 119.13012695 -223.15161133 119.13012695 -219.64453125 119.05078125 C-218.39091797 119.01533203 -217.13730469 118.97988281 -215.84570312 118.94335938 C-214.53537109 118.92080078 -213.22503906 118.89824219 -211.875 118.875 C-210.53967987 118.84182334 -209.20439168 118.80733334 -207.86914062 118.77148438 C-204.60034496 118.68887943 -201.33182188 118.61976771 -198.0625 118.5625 C-198.36542969 117.69447754 -198.66835937 116.82645508 -198.98046875 115.93212891 C-200.10110172 112.71634329 -201.21896883 109.49962421 -202.33496094 106.28222656 C-202.81887735 104.88893703 -203.3038986 103.49603072 -203.79003906 102.10351562 C-204.48792506 100.1038586 -205.1818484 98.10286477 -205.875 96.1015625 C-206.29394531 94.89709473 -206.71289062 93.69262695 -207.14453125 92.45166016 C-208.0625 89.5625 -208.0625 89.5625 -208.0625 87.5625 C-209.24328125 87.59730469 -210.4240625 87.63210937 -211.640625 87.66796875 C-213.19790242 87.69611232 -214.75519525 87.72341187 -216.3125 87.75 C-217.08980469 87.77513672 -217.86710937 87.80027344 -218.66796875 87.82617188 C-222.11981389 87.8704263 -224.45829748 87.86506963 -227.58203125 86.30078125 C-229.82678286 83.66512302 -229.5616579 81.76262705 -229.390625 78.43359375 C-229.0625 76.5625 -229.0625 76.5625 -227.75 74.625 C-221.81440008 70.88777042 -212.95670956 71.90884889 -206.31640625 73.0234375 C-201.13914455 74.50764406 -197.75802562 76.81415416 -195.0625 81.5625 C-190.08442448 91.32917412 -187.06265356 102.1616813 -183.63671875 112.5390625 C-183.33338623 113.45768066 -183.03005371 114.37629883 -182.7175293 115.32275391 C-182.0625 117.5625 -182.0625 117.5625 -182.0625 119.5625 C-181.06691574 119.55583817 -180.07133148 119.54917633 -179.045578 119.54231262 C-169.67236351 119.4815507 -160.29918887 119.43655107 -150.92582226 119.40706348 C-146.10663343 119.39139408 -141.28760333 119.37013259 -136.46850586 119.33618164 C-131.81955208 119.30363359 -127.17075118 119.2856566 -122.52169228 119.27786827 C-120.74622503 119.27231656 -118.97076633 119.26147565 -117.195364 119.24530983 C-114.71233278 119.22359583 -112.22993675 119.2205305 -109.74682617 119.22192383 C-108.64091629 119.20574509 -108.64091629 119.20574509 -107.51266479 119.1892395 C-104.60860938 119.20692306 -102.56283634 119.22945874 -100.10566711 120.86503601 C-98.3314912 123.75201326 -98.71117658 126.28348138 -99.0625 129.5625 C-100.60512813 131.66608381 -101.74358317 132.40304159 -104.0625 133.5625 C-106.2697923 133.63342842 -108.47917452 133.64665025 -110.6875 133.625 C-111.87601563 133.61597656 -113.06453125 133.60695312 -114.2890625 133.59765625 C-115.20429688 133.58605469 -116.11953125 133.57445312 -117.0625 133.5625 C-117.06027939 134.20729813 -117.05805878 134.85209625 -117.05577087 135.51643372 C-117.03368052 142.21578417 -117.01857766 148.91512431 -117.00756836 155.61450195 C-117.00253359 158.11613383 -116.99570539 160.61776276 -116.98706055 163.11938477 C-116.97495762 166.71110766 -116.96926318 170.30279172 -116.96484375 173.89453125 C-116.95968246 175.01648392 -116.95452118 176.13843658 -116.94920349 177.29438782 C-116.94912796 178.33524033 -116.94905243 179.37609283 -116.94897461 180.44848633 C-116.946754 181.36559891 -116.94453339 182.28271149 -116.94224548 183.22761536 C-117.0625 185.5625 -117.0625 185.5625 -118.0625 188.5625 C-107.1725 188.5625 -96.2825 188.5625 -85.0625 188.5625 C-85.08344727 186.10989746 -85.10439453 183.65729492 -85.12597656 181.13037109 C-85.192305 173.01996991 -85.23645875 164.90955664 -85.26974869 156.79895592 C-85.29060857 151.88226327 -85.31889707 146.9658489 -85.36425781 142.04931641 C-85.40777251 137.30307918 -85.43164914 132.55710936 -85.44200897 127.81068802 C-85.44939024 126.00139787 -85.46380427 124.19212209 -85.48542023 122.38294601 C-85.51452938 119.84530963 -85.51845293 117.30877303 -85.51660156 114.77099609 C-85.53098267 114.02580719 -85.54536377 113.28061829 -85.56018066 112.5128479 C-85.51983402 107.38971082 -84.26200178 104.52285262 -81.0625 100.5625 C-77.60313422 97.72521316 -74.59592931 96.5625 -70.0625 96.5625 C-70.08868408 95.63614746 -70.11486816 94.70979492 -70.1418457 93.75537109 C-70.22815358 90.24755666 -70.29026339 86.74090404 -70.3371582 83.23242188 C-70.36197579 81.72735556 -70.39584251 80.22240538 -70.43969727 78.71777344 C-70.94253283 60.99429889 -65.62140336 46.80391827 -54.04296875 33.1875 C-44.18667714 23.53851089 -29.6951181 17.83405035 -16.1875 16.4375 C-15.40375 16.35113281 -14.62 16.26476563 -13.8125 16.17578125 C-11.89646841 15.9654851 -9.9795634 15.76317256 -8.0625 15.5625 C-8.10890625 14.89863281 -8.1553125 14.23476562 -8.203125 13.55078125 C-8.37698913 9.29731952 -8.42841825 6.32482968 -6.5625 2.4375 C-3.97072224 0.49366668 -3.11152634 0.18909829 0 0 Z M-45.4375 45.875 C-58.06206298 61.1124336 -56.0625 76.40777231 -56.0625 96.5625 C-19.1025 96.5625 17.8575 96.5625 55.9375 96.5625 C56.05565307 65.64467128 56.05565307 65.64467128 40.8125 41.4375 C31.77492726 34.074299 22.40502982 31.41838172 11.05078125 31.359375 C10.19373093 31.35367493 9.3366806 31.34797485 8.45365906 31.34210205 C6.64237695 31.33267703 4.8310779 31.32612802 3.01977539 31.32226562 C0.27654307 31.31259359 -2.46592868 31.28156055 -5.20898438 31.25 C-21.33275804 31.15049097 -33.86447662 33.58410111 -45.4375 45.875 Z M-71.0625 111.5625 C-71.0625 121.7925 -71.0625 132.0225 -71.0625 142.5625 C-24.2025 142.5625 22.6575 142.5625 70.9375 142.5625 C70.9375 132.3325 70.9375 122.1025 70.9375 111.5625 C24.0775 111.5625 -22.7825 111.5625 -71.0625 111.5625 Z M124.9375 115.5625 C125.9275 116.0575 125.9275 116.0575 126.9375 116.5625 C127.23527344 117.16835937 127.53304688 117.77421875 127.83984375 118.3984375 C129.08025081 120.84393754 130.51599786 122.30704703 132.5 124.1875 C135.84027778 127.36805556 135.84027778 127.36805556 136.9375 129.5625 C144.76972813 129.7251172 152.60155661 129.84928204 160.43505192 129.9251852 C164.07311439 129.96162741 167.7100171 130.01100368 171.34741211 130.09057617 C174.86180848 130.16697153 178.37509391 130.20855802 181.89025688 130.2266407 C183.87521432 130.24575723 185.85972822 130.30035167 187.8440094 130.35557556 C195.63500571 130.44068887 195.63500571 130.44068887 202.00170898 126.45727539 C203.48407013 124.71279093 203.48407013 124.71279093 204.9375 122.5625 C206.5875 120.2525 208.2375 117.9425 209.9375 115.5625 C181.8875 115.5625 153.8375 115.5625 124.9375 115.5625 Z M-197.0625 133.5625 C-197.145 141.544375 -197.2275 149.52625 -197.3125 157.75 C-197.34891602 160.26262451 -197.38533203 162.77524902 -197.42285156 165.36401367 C-197.43453676 167.36115667 -197.44472899 169.35830921 -197.453125 171.35546875 C-197.47358887 172.38788696 -197.49405273 173.42030518 -197.51513672 174.48400879 C-197.53622053 180.38983702 -197.53622053 180.38983702 -195.16308594 185.70043945 C-191.96408377 188.53618905 -190.15060293 188.69799433 -185.95776367 188.75537109 C-184.89293259 188.77143402 -183.8281015 188.78749695 -182.73100281 188.80404663 C-177.85900454 188.84843193 -172.98714331 188.88955853 -168.11499023 188.91259766 C-165.54360916 188.92916521 -162.97227428 188.95646529 -160.40112305 188.99462891 C-156.69816133 189.04932553 -152.99627975 189.07126159 -149.29296875 189.0859375 C-148.1438652 189.10860687 -146.99476166 189.13127625 -145.81083679 189.15463257 C-139.38976393 189.19817186 -139.38976393 189.19817186 -133.8605957 186.21728516 C-131.4474503 182.65441441 -130.93771328 180.10794594 -130.94897461 175.9074707 C-130.94915588 174.47667175 -130.94915588 174.47667175 -130.94934082 173.01696777 C-130.95445679 172.01750122 -130.95957275 171.01803467 -130.96484375 169.98828125 C-130.96585083 169.06736694 -130.96685791 168.14645264 -130.96789551 167.19763184 C-130.97312848 163.7567419 -130.98708974 160.3158697 -131 156.875 C-131.0309375 145.3353125 -131.0309375 145.3353125 -131.0625 133.5625 C-152.8425 133.5625 -174.6225 133.5625 -197.0625 133.5625 Z M124.9375 144.5625 C126.9175 146.8725 128.8975 149.1825 130.9375 151.5625 C131.47964142 152.35244354 132.02178284 153.14238708 132.58035278 153.95626831 C134.95076444 157.32347059 136.75476479 159.25073487 140.80706787 160.31890869 C144.37152113 160.65528516 147.84942998 160.72376874 151.4296875 160.6953125 C152.7302005 160.70770966 154.0307135 160.72010681 155.37063599 160.73287964 C158.1164667 160.75362492 160.86022089 160.74467152 163.60595703 160.71533203 C167.10371673 160.68099246 170.59489271 160.72788193 174.09191704 160.79831123 C177.45487899 160.85314006 180.81630103 160.83276978 184.1796875 160.8203125 C186.04571121 160.86008713 186.04571121 160.86008713 187.94943237 160.90066528 C193.05625708 160.79199643 196.552842 160.65208993 200.65045166 157.42767334 C202.94859203 154.90481603 204.95793989 152.33977165 206.9375 149.5625 C208.2575 147.9125 209.5775 146.2625 210.9375 144.5625 C182.5575 144.5625 154.1775 144.5625 124.9375 144.5625 Z M-71.0625 157.5625 C-71.0625 167.7925 -71.0625 178.0225 -71.0625 188.5625 C-64.7925 188.5625 -58.5225 188.5625 -52.0625 188.5625 C-50.6032897 184.52114802 -49.14509968 180.47943286 -47.6875 176.4375 C-47.275 175.29539063 -46.8625 174.15328125 -46.4375 172.9765625 C-46.03789062 171.86796875 -45.63828125 170.759375 -45.2265625 169.6171875 C-44.85998535 168.60124512 -44.4934082 167.58530273 -44.11572266 166.53857422 C-43.06135333 163.55925989 -42.06190025 160.56070074 -41.0625 157.5625 C-50.9625 157.5625 -60.8625 157.5625 -71.0625 157.5625 Z M-26.0625 157.5625 C-31.93884551 172.93455119 -31.93884551 172.93455119 -37.0625 188.5625 C-12.6425 188.5625 11.7775 188.5625 36.9375 188.5625 C33.47019237 178.1605771 29.68457239 167.86694907 25.9375 157.5625 C8.7775 157.5625 -8.3825 157.5625 -26.0625 157.5625 Z M40.9375 157.5625 C42.34206035 161.65637282 43.7474536 165.74993927 45.1550293 169.84277344 C45.63371995 171.23550514 46.11191282 172.62840804 46.58959961 174.02148438 C47.27587514 176.02258685 47.96393219 178.02306901 48.65234375 180.0234375 C49.06605225 181.22790527 49.47976074 182.43237305 49.90600586 183.67333984 C50.83414935 186.45616342 50.83414935 186.45616342 51.9375 188.5625 C58.2075 188.5625 64.4775 188.5625 70.9375 188.5625 C70.9375 178.3325 70.9375 168.1025 70.9375 157.5625 C61.0375 157.5625 51.1375 157.5625 40.9375 157.5625 Z M125.9375 174.5625 C131.63940636 184.0744221 131.63940636 184.0744221 140.97695923 189.43670654 C144.51859402 189.81647508 147.95758002 189.91487914 151.51953125 189.8984375 C152.81009933 189.91653473 154.10066742 189.93463196 155.43034363 189.95327759 C158.15177698 189.98442934 160.87057635 189.98145733 163.59204102 189.95556641 C166.36178507 189.93245876 169.12309796 189.96010901 171.8918457 190.03759766 C188.04449689 191.18626951 188.04449689 191.18626951 202.49755859 185.60644531 C205.60194327 182.57929757 207.8797562 179.36956697 209.9375 175.5625 C209.9375 175.2325 209.9375 174.9025 209.9375 174.5625 C182.2175 174.5625 154.4975 174.5625 125.9375 174.5625 Z M-237.0625 205.5625 C-238.1575504 208.08953937 -238.21545704 209.1506926 -237.25 211.75 C-236.18128013 213.71272193 -236.18128013 213.71272193 -234.0625 214.5625 C-231.51193239 214.66093277 -228.98864473 214.69809946 -226.43776798 214.69113445 C-225.63775833 214.69288749 -224.83774868 214.69464053 -224.01349631 214.69644669 C-221.3040704 214.70113817 -218.59469741 214.69863315 -215.88526917 214.69621277 C-213.93465011 214.69807916 -211.98403143 214.70037917 -210.03341335 214.70307809 C-204.65077523 214.70922376 -199.26815258 214.70905926 -193.88551176 214.70788372 C-188.08925025 214.70768041 -182.2929938 214.71319176 -176.49673462 214.71794128 C-165.13269693 214.72626341 -153.76866442 214.72899682 -142.40462393 214.72955366 C-133.17223915 214.73002806 -123.93985609 214.73207898 -114.70747185 214.73525429 C-112.05289664 214.73614877 -109.39832143 214.73704038 -106.74374622 214.73792917 C-106.08387007 214.73815021 -105.42399393 214.73837126 -104.74412153 214.73859901 C-86.17576391 214.74475569 -67.60740688 214.74869932 -49.03904819 214.74825573 C-48.33856298 214.74824015 -47.63807776 214.74822457 -46.91636572 214.74820852 C-43.36576345 214.74812541 -39.81516119 214.74802637 -36.26455892 214.74792381 C-35.20675563 214.7478939 -35.20675563 214.7478939 -34.12758258 214.74786337 C-32.70149139 214.74782294 -31.27540019 214.74778114 -29.84930899 214.74773798 C-7.65498526 214.74712504 14.53932321 214.75463419 36.73364258 214.76831055 C61.65042585 214.78365807 86.56719909 214.79227758 111.48398739 214.79134732 C124.68392159 214.79101465 137.88383857 214.7937924 151.08376884 214.80452538 C162.32063139 214.81360327 173.5574689 214.81582804 184.79433351 214.80901595 C190.5323166 214.80573704 196.27025161 214.80574313 202.00823021 214.8143692 C207.25428594 214.82217496 212.50025499 214.8208641 217.74630845 214.81208507 C219.65073128 214.81053691 221.55516039 214.8124151 223.45957582 214.81794515 C226.0354666 214.82493342 228.61104715 214.81976871 231.18692684 214.81138897 C231.9373295 214.81635715 232.68773216 214.82132533 233.46087429 214.82644406 C237.17560197 214.80065182 238.76135186 214.6799321 241.9375 212.5625 C243.0325504 210.03546063 243.09045704 208.9743074 242.125 206.375 C241.05628013 204.41227807 241.05628013 204.41227807 238.9375 203.5625 C236.38693239 203.46406723 233.86364473 203.42690054 231.31276798 203.43386555 C230.51275833 203.43211251 229.71274868 203.43035947 228.88849631 203.42855331 C226.1790704 203.42386183 223.46969741 203.42636685 220.76026917 203.42878723 C218.80965011 203.42692084 216.85903143 203.42462083 214.90841335 203.42192191 C209.52577523 203.41577624 204.14315258 203.41594074 198.76051176 203.41711628 C192.96425025 203.41731959 187.1679938 203.41180824 181.37173462 203.40705872 C170.00769693 203.39873659 158.64366442 203.39600318 147.27962393 203.39544634 C138.04723915 203.39497194 128.81485609 203.39292102 119.58247185 203.38974571 C116.92789664 203.38885123 114.27332143 203.38795962 111.61874622 203.38707083 C110.95887007 203.38684979 110.29899393 203.38662874 109.61912153 203.38640099 C91.05076391 203.38024431 72.48240688 203.37630068 53.91404819 203.37674427 C53.21356298 203.37675985 52.51307776 203.37677543 51.79136572 203.37679148 C48.24076345 203.37687459 44.69016119 203.37697363 41.13955892 203.37707619 C40.08175563 203.3771061 40.08175563 203.3771061 39.00258258 203.37713663 C37.57649139 203.37717706 36.15040019 203.37721886 34.72430899 203.37726202 C12.52998526 203.37787496 -9.66432321 203.37036581 -31.85864258 203.35668945 C-56.77542585 203.34134193 -81.69219909 203.33272242 -106.60898739 203.33365268 C-119.80892159 203.33398535 -133.00883857 203.3312076 -146.20876884 203.32047462 C-157.44563139 203.31139673 -168.6824689 203.30917196 -179.91933351 203.31598405 C-185.6573166 203.31926296 -191.39525161 203.31925687 -197.13323021 203.3106308 C-202.37928594 203.30282504 -207.62525499 203.3041359 -212.87130845 203.31291493 C-214.77573128 203.31446309 -216.68016039 203.3125849 -218.58457582 203.30705485 C-221.1604666 203.30006658 -223.73604715 203.30523129 -226.31192684 203.31361103 C-227.0623295 203.30864285 -227.81273216 203.30367467 -228.58587429 203.29855594 C-232.30060197 203.32434818 -233.88635186 203.4450679 -237.0625 205.5625 Z M-222.0625 229.5625 C-222.124375 234.71875 -222.18625 239.875 -222.25 245.1875 C-222.27731201 246.80350098 -222.30462402 248.41950195 -222.33276367 250.08447266 C-222.34025635 251.3688623 -222.34774902 252.65325195 -222.35546875 253.9765625 C-222.3711792 255.2857666 -222.38688965 256.5949707 -222.40307617 257.94384766 C-221.90467971 263.23935475 -219.93745351 267.29563266 -215.9375 270.8125 C-211.40889016 274.43538788 -206.76495255 275.72317247 -200.9921875 275.47265625 C-195.18523499 274.45928611 -190.83471062 270.98112229 -187.0625 266.5625 C-184.9224101 262.34070369 -184.82977714 258.76921834 -184.8671875 254.07421875 C-184.87218262 252.78733154 -184.87717773 251.50044434 -184.88232422 250.17456055 C-184.90053223 248.54945557 -184.91874023 246.92435059 -184.9375 245.25 C-184.97875 240.073125 -185.02 234.89625 -185.0625 229.5625 C-197.2725 229.5625 -209.4825 229.5625 -222.0625 229.5625 Z M-170.0625 229.5625 C-170.165625 234.8425 -170.26875 240.1225 -170.375 245.5625 C-170.42052002 247.2125 -170.46604004 248.8625 -170.51293945 250.5625 C-170.70728846 260.4402538 -170.70728846 260.4402538 -166.44433594 269.16601562 C-161.89676595 273.76179306 -158.32446971 274.81202595 -152 275.0625 C-146.90814915 274.87815084 -143.90142272 274.11350352 -140.0625 270.5625 C-135.02421377 265.10435658 -133.80656965 260.65803708 -133.8671875 253.29296875 C-133.87218262 252.04668701 -133.87717773 250.80040527 -133.88232422 249.51635742 C-133.90053223 247.94345947 -133.91874023 246.37056152 -133.9375 244.75 C-133.999375 237.2321875 -133.999375 237.2321875 -134.0625 229.5625 C-145.9425 229.5625 -157.8225 229.5625 -170.0625 229.5625 Z M-119.0625 229.5625 C-119.18625 234.821875 -119.31 240.08125 -119.4375 245.5 C-119.49212402 247.140896 -119.54674805 248.78179199 -119.60302734 250.47241211 C-119.68927557 258.05530028 -119.53742796 263.80375577 -114.64868164 269.99829102 C-110.48578628 274.10351967 -105.79600053 275.37138332 -100.0625 275.5625 C-93.61282877 274.59863816 -89.31703465 272.68516095 -85.21875 267.57421875 C-82.37691645 262.62981241 -81.81903471 258.04793864 -81.8671875 252.4140625 C-81.87218262 251.21088379 -81.87717773 250.00770508 -81.88232422 248.76806641 C-81.90053223 247.25647949 -81.91874023 245.74489258 -81.9375 244.1875 C-81.97875 239.36125 -82.02 234.535 -82.0625 229.5625 C-94.2725 229.5625 -106.4825 229.5625 -119.0625 229.5625 Z M-68.0625 229.5625 C-68.124375 234.161875 -68.18625 238.76125 -68.25 243.5 C-68.27731201 244.93206787 -68.30462402 246.36413574 -68.33276367 247.83959961 C-68.49616878 259.36854923 -68.49616878 259.36854923 -63.51074219 269.42944336 C-59.40228688 273.53088547 -54.8139558 275.24463025 -49.0625 275.5625 C-43.55813276 275.23571011 -39.79865032 273.03211523 -35.60546875 269.5859375 C-29.86683398 262.06033545 -30.52565658 253.09994428 -30.375 244.0625 C-30.271875 239.2775 -30.16875 234.4925 -30.0625 229.5625 C-42.6025 229.5625 -55.1425 229.5625 -68.0625 229.5625 Z M-16.0625 229.5625 C-16.289375 234.3475 -16.51625 239.1325 -16.75 244.0625 C-16.82951904 245.55587891 -16.90903809 247.04925781 -16.9909668 248.58789062 C-17.31354056 256.62359758 -17.47195327 262.87789312 -12.58984375 269.5859375 C-7.87718209 273.59227886 -3.29248873 275.43885137 2.9375 275.5625 C8.40539697 274.63529719 13.0401377 272.5744906 16.9375 268.5625 C20.56336542 262.60572109 21.06782369 256.93047578 21.03515625 250.0703125 C21.03265869 248.9889502 21.03016113 247.90758789 21.02758789 246.79345703 C21.01848389 245.43849121 21.00937988 244.08352539 21 242.6875 C20.979375 238.35625 20.95875 234.025 20.9375 229.5625 C8.7275 229.5625 -3.4825 229.5625 -16.0625 229.5625 Z M34.9375 229.5625 C34.855 234.5125 34.7725 239.4625 34.6875 244.5625 C34.65108398 246.10808594 34.61466797 247.65367187 34.57714844 249.24609375 C34.50333618 258.3988135 35.09880117 264.45598497 41.625 271.4375 C46.50978378 274.57113488 50.7007531 275.94817572 56.52734375 275.25390625 C62.76923064 273.74271258 66.56314245 271.04116171 69.9375 265.5625 C71.11742416 262.02272752 71.16672727 258.73979506 71.25390625 255.05078125 C71.27255737 254.40508179 71.2912085 253.75938232 71.3104248 253.09411621 C71.37859373 250.68787999 71.43882457 248.28142417 71.5 245.875 C71.644375 240.491875 71.78875 235.10875 71.9375 229.5625 C59.7275 229.5625 47.5175 229.5625 34.9375 229.5625 Z M85.9375 229.5625 C85.855 234.5125 85.7725 239.4625 85.6875 244.5625 C85.65108398 246.10808594 85.61466797 247.65367187 85.57714844 249.24609375 C85.50333618 258.3988135 86.09880117 264.45598497 92.625 271.4375 C97.86551971 274.79934283 102.94285236 276.24958105 109.125 274.9375 C114.399104 273.25985261 117.89979838 271.0626556 121.09375 266.4453125 C124.26369937 259.84300073 123.3501086 252.19713213 123.1875 245.0625 C123.105 239.9475 123.0225 234.8325 122.9375 229.5625 C110.7275 229.5625 98.5175 229.5625 85.9375 229.5625 Z M137.9375 229.5625 C137.855 234.6775 137.7725 239.7925 137.6875 245.0625 C137.65108398 246.66029297 137.61466797 248.25808594 137.57714844 249.90429688 C137.50787406 258.7758869 137.88234059 265.03026302 144.0625 271.9375 C148.88586596 274.66375032 153.86567199 276.07204493 159.41015625 275.15234375 C163.9112282 273.77722494 167.66605668 272.02638117 170.9375 268.5625 C173.55851599 263.4318404 174.30097788 259.73116438 174.23046875 253.87890625 C174.22297607 252.59701416 174.2154834 251.31512207 174.20776367 249.99438477 C174.18045166 248.38748779 174.15313965 246.78059082 174.125 245.125 C174.063125 239.989375 174.00125 234.85375 173.9375 229.5625 C162.0575 229.5625 150.1775 229.5625 137.9375 229.5625 Z M188.9375 229.5625 C188.875625 234.71875 188.81375 239.875 188.75 245.1875 C188.72268799 246.80350098 188.69537598 248.41950195 188.66723633 250.08447266 C188.65974365 251.3688623 188.65225098 252.65325195 188.64453125 253.9765625 C188.6288208 255.2857666 188.61311035 256.5949707 188.59692383 257.94384766 C189.09532029 263.23935475 191.06254649 267.29563266 195.0625 270.8125 C199.58483815 274.43037052 204.2688728 275.78030347 210.04296875 275.4375 C215.34348968 274.45326401 219.57062985 271.7646949 222.9375 267.5625 C225.47691786 262.48759283 226.30228011 258.86650206 226.23046875 253.09765625 C226.22297607 251.85636963 226.2154834 250.61508301 226.20776367 249.33618164 C226.16679565 247.00414673 226.16679565 247.00414673 226.125 244.625 C226.063125 239.654375 226.00125 234.68375 225.9375 229.5625 C213.7275 229.5625 201.5175 229.5625 188.9375 229.5625 Z M-178.0625 277.5625 C-178.68125 278.14257812 -178.68125 278.14257812 -179.3125 278.734375 C-187.77199117 286.36302328 -195.33604717 288.90155508 -206.65234375 288.86328125 C-210.92734934 288.4862189 -214.28009301 287.25535305 -218.13671875 285.4375 C-220.01343585 284.42461207 -220.01343585 284.42461207 -222.0625 284.5625 C-222.15524882 295.15027241 -222.22628987 305.7379479 -222.26974869 316.32604408 C-222.29060857 321.24273673 -222.31889707 326.1591511 -222.36425781 331.07568359 C-222.40777251 335.82192082 -222.43164914 340.56789064 -222.44200897 345.31431198 C-222.44939024 347.12360213 -222.46380427 348.93287791 -222.48542023 350.74205399 C-222.51452938 353.27969037 -222.51845293 355.81622697 -222.51660156 358.35400391 C-222.53098267 359.09919281 -222.54536377 359.84438171 -222.56018066 360.6121521 C-222.51974077 365.74712964 -221.44628049 368.70596541 -218.0625 372.5625 C-213.47174338 375.37218955 -210.02232934 375.9385548 -204.67794228 375.94281673 C-203.95248042 375.94747665 -203.22701856 375.95213657 -202.47957301 375.9569377 C-200.04760907 375.96889264 -197.61620328 375.95949057 -195.18423462 375.95018005 C-193.42346461 375.95435276 -191.6626973 375.95982993 -189.90193498 375.96649987 C-185.0624105 375.98098156 -180.22305593 375.97670123 -175.38352203 375.96933305 C-170.16459545 375.9646104 -164.9457061 375.97710325 -159.72679138 375.98735046 C-149.50194904 376.00456173 -139.27716808 376.00537362 -129.05231501 376.00013756 C-120.74254626 375.99609884 -112.43279568 375.99753588 -104.1230278 376.00288582 C-102.94107127 376.00363424 -101.75911475 376.00438266 -100.54134136 376.00515376 C-98.14031741 376.00668522 -95.73929346 376.00822356 -93.33826952 376.00976873 C-70.81290151 376.02350228 -48.28756822 376.01805015 -25.762201 376.00658352 C-5.14943283 375.99665097 15.46324558 376.00959069 36.0759999 376.03351771 C57.23459002 376.05789352 78.39313831 376.06752027 99.5517422 376.06086498 C111.4333187 376.0573693 123.31482616 376.05962786 135.19639206 376.07711601 C145.31132438 376.09181902 155.42613905 376.09249833 165.54106902 376.0750451 C170.70255467 376.06651696 175.86382997 376.06442983 181.02530479 376.07969666 C185.7503686 376.09349969 190.47504099 376.08883711 195.2000819 376.06945742 C196.9093191 376.0656836 198.61858732 376.06865902 200.32779698 376.07906907 C212.23381751 376.29206392 212.23381751 376.29206392 222.9375 371.5625 C226.43593219 367.59491957 226.35105377 363.5338507 226.27807617 358.4675293 C226.27873329 357.26674492 226.27873329 357.26674492 226.27940369 356.04170227 C226.27732046 353.40645614 226.25401178 350.77185318 226.23046875 348.13671875 C226.22487113 346.3054082 226.22060181 344.47409314 226.21760559 342.64277649 C226.20616989 337.83075483 226.17671367 333.01900629 226.14349365 328.20709229 C226.11276529 323.29369806 226.09909434 318.38025956 226.08398438 313.46679688 C226.05184276 303.83191148 226.0006618 294.19722848 225.9375 284.5625 C222.926217 285.55911865 219.92903578 286.56562423 216.953125 287.6640625 C209.00739509 290.03131364 200.72524113 289.25881692 193.23046875 285.84765625 C190.11103323 284.09928438 187.3083799 282.07991303 184.53125 279.83203125 C182.94974518 278.48217286 182.94974518 278.48217286 180.9375 277.5625 C180.9375 278.2225 180.9375 278.8825 180.9375 279.5625 C180.06544922 279.98015625 180.06544922 279.98015625 179.17578125 280.40625 C177.04612547 281.50638632 175.11639206 282.73220143 173.125 284.0625 C165.06151018 289.07813862 156.23080173 289.96008163 147 287.91015625 C140.40434543 285.77572915 135.76752158 282.4893988 130.9375 277.5625 C130.21046875 278.14257812 130.21046875 278.14257812 129.46875 278.734375 C119.67513299 286.34326206 111.471031 289.65237226 98.9375 288.5625 C91.11170479 286.67775351 84.64548523 283.27048523 78.9375 277.5625 C78.525 277.94921875 78.1125 278.3359375 77.6875 278.734375 C69.26484171 286.32980793 61.45264463 288.97500178 50.1328125 288.8359375 C40.89408288 288.04533717 34.32756455 284.08073204 27.9375 277.5625 C27.53660156 277.94921875 27.13570312 278.3359375 26.72265625 278.734375 C18.61837883 286.15870171 10.04251846 288.94980506 -0.828125 288.84375 C-9.87950484 288.05667349 -17.68413827 283.94086173 -24.0625 277.5625 C-24.475 277.94921875 -24.8875 278.3359375 -25.3125 278.734375 C-33.49879584 286.11665964 -40.9225313 288.91628451 -51.90234375 288.76953125 C-60.27015268 288.22133116 -65.8882044 285.47074306 -72.25 280.0859375 C-73.99483233 278.49918813 -73.99483233 278.49918813 -76.0625 277.5625 C-76.990625 278.6453125 -76.990625 278.6453125 -77.9375 279.75 C-83.95037427 285.797332 -92.26453976 288.6634837 -100.625 288.875 C-111.22580925 288.7458793 -118.71005014 285.0624202 -126.0625 277.5625 C-126.5471875 277.94921875 -127.031875 278.3359375 -127.53125 278.734375 C-137.32486701 286.34326206 -145.528969 289.65237226 -158.0625 288.5625 C-165.88829521 286.67775351 -172.35451477 283.27048523 -178.0625 277.5625 Z M-184.0625 389.5625 C-184.1118933 395.63141692 -184.14821643 401.70021713 -184.17236328 407.76928711 C-184.18242835 409.834412 -184.19608154 411.89952263 -184.21337891 413.96459961 C-184.23760493 416.93086264 -184.24897797 419.89693744 -184.2578125 422.86328125 C-184.26813507 423.7883699 -184.27845764 424.71345856 -184.28909302 425.6665802 C-184.28924408 426.52724594 -184.28939514 427.38791168 -184.28955078 428.2746582 C-184.293992 429.03188675 -184.29843323 429.7891153 -184.30300903 430.56929016 C-184.17612098 432.88068429 -184.17612098 432.88068429 -182.0625 435.5625 C-178.77985237 436.04304396 -178.77985237 436.04304396 -175.0625 435.9375 C-173.804375 435.94523437 -172.54625 435.95296875 -171.25 435.9609375 C-170.198125 435.82945312 -169.14625 435.69796875 -168.0625 435.5625 C-165.98711376 432.44942064 -165.81477849 431.79901805 -165.83544922 428.2746582 C-165.83560028 427.41399246 -165.83575134 426.55332672 -165.83590698 425.6665802 C-165.84622955 424.74149155 -165.85655212 423.81640289 -165.8671875 422.86328125 C-165.8700174 421.91309616 -165.87284729 420.96291107 -165.87576294 419.9839325 C-165.88696285 416.94749385 -165.91206712 413.91134958 -165.9375 410.875 C-165.94753004 408.81706155 -165.95665585 406.75911848 -165.96484375 404.70117188 C-165.98690158 399.6548344 -166.02143018 394.60871712 -166.0625 389.5625 C-172.0025 389.5625 -177.9425 389.5625 -184.0625 389.5625 Z M170.9375 389.5625 C170.8881067 395.63141692 170.85178357 401.70021713 170.82763672 407.76928711 C170.81757165 409.834412 170.80391846 411.89952263 170.78662109 413.96459961 C170.76239507 416.93086264 170.75102203 419.89693744 170.7421875 422.86328125 C170.73186493 423.7883699 170.72154236 424.71345856 170.71090698 425.6665802 C170.71075592 426.52724594 170.71060486 427.38791168 170.71044922 428.2746582 C170.706008 429.03188675 170.70156677 429.7891153 170.69699097 430.56929016 C170.82387902 432.88068429 170.82387902 432.88068429 172.9375 435.5625 C176.22014763 436.04304396 176.22014763 436.04304396 179.9375 435.9375 C181.195625 435.94523437 182.45375 435.95296875 183.75 435.9609375 C184.801875 435.82945312 185.85375 435.69796875 186.9375 435.5625 C189.01288624 432.44942064 189.18522151 431.79901805 189.16455078 428.2746582 C189.16439972 427.41399246 189.16424866 426.55332672 189.16409302 425.6665802 C189.15377045 424.74149155 189.14344788 423.81640289 189.1328125 422.86328125 C189.1299826 421.91309616 189.12715271 420.96291107 189.12423706 419.9839325 C189.11303715 416.94749385 189.08793288 413.91134958 189.0625 410.875 C189.05246996 408.81706155 189.04334415 406.75911848 189.03515625 404.70117188 C189.01309842 399.6548344 188.97856982 394.60871712 188.9375 389.5625 C182.9975 389.5625 177.0575 389.5625 170.9375 389.5625 Z " fill="#27276D" transform="translate(254.0625,-0.5625)"/>
<path d="M0 0 C5.43522117 4.86773868 8.53357002 11.73878784 9.31640625 18.890625 C9.56980878 25.39734808 9.02852444 30.71499044 5 36 C4.13375 36.66 3.2675 37.32 2.375 38 C-0.55085336 40.46387651 -1.17511706 42.29193406 -1.9296875 45.96875 C-2.04072922 49.17662178 -0.65104995 51.33291932 1 54 C1 54.66 1 55.32 1 56 C2.485 56.495 2.485 56.495 4 57 C5.4375 59.6875 5.4375 59.6875 6 63 C4.34648191 66.50545834 3.16401717 68.44862345 -0.375 70.125 C-4.30788944 69.93771955 -5.98826425 68.52002379 -9 66 C-15.37441853 58.73225441 -17.48765868 52.92597424 -17.3125 43.2265625 C-16.70939334 36.99948621 -14.27062534 33.0665184 -9.8125 28.8125 C-6.96408213 26.29848985 -6.96408213 26.29848985 -5.9375 23.625 C-6.0469608 19.02764629 -7.88345268 14.84230308 -10.25 10.9375 C-11.47621903 7.76976751 -10.77706709 5.22781714 -10 2 C-6.18050407 -0.54633062 -4.52147502 -0.7663517 0 0 Z " fill="#27276D" transform="translate(137,29)"/>
<path d="M0 0 C5.76200565 4.53206477 8.72486722 11.25594909 9.8125 18.375 C10.27306509 24.71580303 9.84696947 29.61376938 5.859375 34.765625 C4.24639821 36.62206999 2.59409529 38.44531945 0.8984375 40.2265625 C-1.50354538 43.73563214 -1.4402071 45.8278149 -1 50 C0.39049735 52.98956931 1.72074114 54.75265644 4.1875 56.9375 C6 59 6 59 6.5 62 C5.88802278 65.67186334 4.949502 66.7878735 2 69 C0.0625 69.9375 0.0625 69.9375 -2 70 C-7.69977426 67.68928071 -12.15260831 62.29289465 -15.11328125 57.015625 C-17.75096245 50.76519561 -17.91544739 44.79452362 -15.8125 38.375 C-13.51258653 34.09240251 -11.05986837 29.76974607 -7.3359375 26.5703125 C-5.80338274 25.07657289 -5.80338274 25.07657289 -5.8203125 22.9140625 C-6.46723823 17.94411596 -6.46723823 17.94411596 -8.5625 13.4375 C-10.72758523 9.76626852 -10.40939101 7.23037372 -10 3 C-7.82640131 -1.09147989 -4.19592413 -0.71117358 0 0 Z " fill="#27276D" transform="translate(97,29)"/>
</svg>
