<?xml version="1.0" encoding="UTF-8"?>
<svg version="1.1" xmlns="http://www.w3.org/2000/svg" width="512" height="204">
<path d="M0 0 C1.94577208 0.00919422 3.89156403 0.01480625 5.83735657 0.01702881 C9.8847897 0.03073785 13.93039826 0.0736408 17.97729492 0.140625 C23.16710029 0.22609523 28.35548914 0.25833172 33.54593182 0.2716713 C37.5496891 0.28411873 41.55316055 0.31354773 45.55677223 0.34929657 C47.47174625 0.36638302 49.38674741 0.38066628 51.30176353 0.39209747 C53.96558812 0.41267054 56.62828348 0.45353755 59.29174805 0.50097656 C60.47687485 0.50600693 60.47687485 0.50600693 61.6859436 0.51113892 C64.61945845 0.58051595 66.92063964 0.64741039 69.47927856 2.16627502 C70.89522778 4.71764309 70.84815522 6.64340577 70.82885742 9.55737305 C70.82863083 10.69832932 70.82840424 11.83928558 70.82817078 13.01481628 C70.81268692 14.24613785 70.79720306 15.47745941 70.78125 16.74609375 C70.77700516 18.00702347 70.77276031 19.26795319 70.76838684 20.5670929 C70.75442752 23.91612443 70.72748229 27.26454258 70.6942749 30.61340332 C70.6635623 34.03192853 70.64987901 37.45051715 70.63476562 40.86914062 C70.60165348 47.57438849 70.55142143 54.27934633 70.48828125 60.984375 C71.35106689 60.96866455 72.21385254 60.9529541 73.1027832 60.93676758 C76.30637392 60.88561545 79.5097564 60.8480134 82.71362305 60.81958008 C84.09976044 60.80450103 85.48585019 60.7840345 86.87182617 60.75805664 C88.86486271 60.72163784 90.85824848 60.70624482 92.8515625 60.69140625 C94.05079346 60.6756958 95.25002441 60.65998535 96.4855957 60.64379883 C99.48828125 60.984375 99.48828125 60.984375 101.38476562 62.375 C103.42971521 65.35736895 102.66062 68.48015371 102.48828125 71.984375 C103.07609375 71.86320312 103.66390625 71.74203125 104.26953125 71.6171875 C115.57284375 69.5059366 127.03312784 68.80260024 138.48828125 67.984375 C139.31295898 67.92362793 140.13763672 67.86288086 140.98730469 67.80029297 C219.27400021 62.24628132 219.27400021 62.24628132 248.48828125 71.984375 C248.42640625 70.72625 248.36453125 69.468125 248.30078125 68.171875 C248.17874494 65.69046996 248.17488036 64.44144108 249.59179688 62.375 C252.40949711 60.30887995 254.6665981 60.64609967 258.125 60.69140625 C259.42373047 60.70107422 260.72246094 60.71074219 262.06054688 60.72070312 C263.43229764 60.74576915 264.80404243 60.77116399 266.17578125 60.796875 C267.55923049 60.8119248 268.94269526 60.8256127 270.32617188 60.83789062 C273.71393332 60.87330277 277.10091264 60.92269446 280.48828125 60.984375 C280.4782885 59.92321724 280.4782885 59.92321724 280.46809387 58.84062195 C280.40799428 52.17518604 280.36231286 45.5098257 280.33284473 38.84418011 C280.31718551 35.41724277 280.29594321 31.99052923 280.26196289 28.5637207 C280.22314611 24.62453892 280.20857409 20.68544791 280.1953125 16.74609375 C280.17982864 15.51477219 280.16434479 14.28345062 280.14839172 13.01481628 C280.14816513 11.87386002 280.14793854 10.73290375 280.14770508 9.55737305 C280.13771233 8.04846748 280.13771233 8.04846748 280.1275177 6.50907898 C280.48828125 3.984375 280.48828125 3.984375 281.50521851 2.17123413 C284.66233882 0.28170387 287.97665691 0.47325809 291.55786133 0.42163086 C292.38127518 0.39870468 293.20468903 0.3757785 294.05305481 0.35215759 C296.78793451 0.28266444 299.52233155 0.2379672 302.2578125 0.19921875 C303.66879495 0.17713443 303.66879495 0.17713443 305.10828209 0.15460396 C310.10671907 0.08018635 315.10492243 0.0272166 320.10375977 -0.01098633 C324.20293494 -0.04623712 328.29803445 -0.12217254 332.39575195 -0.23657227 C375.12340719 -1.40388077 375.12340719 -1.40388077 391.4908905 13.26890564 C394.63663054 15.97064072 398.12769697 18.04603039 401.67578125 20.171875 C408.59739451 24.54914675 408.59739451 24.54914675 410.48828125 26.984375 C410.87418461 29.61968803 410.87418461 29.61968803 410.88941956 32.85421753 C410.90221451 34.07958221 410.91500946 35.3049469 410.92819214 36.56744385 C410.92714357 37.92761259 410.92575896 39.28778111 410.92407227 40.64794922 C410.93304766 42.07869254 410.94325539 43.50942858 410.9546051 44.94015503 C410.981133 48.82865759 410.98813974 52.71696218 410.99005246 56.60554647 C410.99289993 59.85108573 411.00393508 63.09657878 411.01456875 66.34210026 C411.03900571 73.99941223 411.0463212 81.65661837 411.04418945 89.31396484 C411.04238717 97.21387846 411.0740394 105.11317745 411.12142044 113.01293552 C411.16064507 119.79436381 411.17674124 126.57559121 411.17482322 133.35713208 C411.17405814 137.40791296 411.18261696 141.45814783 411.21435738 145.50881577 C411.24339954 149.31925595 411.24364201 153.12862819 411.22180748 156.93910599 C411.21866947 158.33672393 411.2257624 159.73440832 411.24388885 161.13191223 C411.37189618 171.6854053 411.37189618 171.6854053 409.19261265 174.88908958 C407.60061646 176.2456665 407.60061646 176.2456665 404.48828125 177.984375 C403.23785034 178.84651611 403.23785034 178.84651611 401.9621582 179.72607422 C401.14191162 180.24186035 400.32166504 180.75764648 399.4765625 181.2890625 C398.55294922 181.87300781 397.62933594 182.45695313 396.67773438 183.05859375 C395.72833984 183.65285156 394.77894531 184.24710938 393.80078125 184.859375 C392.87072266 185.44589844 391.94066406 186.03242188 390.98242188 186.63671875 C389.21000934 187.75445638 387.4364872 188.87043838 385.66137695 189.98388672 C382.58242793 191.82559375 382.58242793 191.82559375 380.39498901 193.73843384 C371.33030309 200.70548452 362.17938243 199.9370511 351.26953125 199.7734375 C349.31946359 199.76798676 347.36938679 199.76521359 345.41931152 199.76498413 C341.35427382 199.75729243 337.2903288 199.72650235 333.22558594 199.67724609 C328.01218085 199.61465332 322.79981222 199.59639443 317.5860672 199.59345436 C313.56947684 199.58876101 309.55310724 199.56799703 305.53660583 199.54157639 C303.6132537 199.52951326 301.68987745 199.5208119 299.76649475 199.515522 C297.08805466 199.50433687 294.41061071 199.47323356 291.73242188 199.43603516 C290.93762421 199.43582367 290.14282654 199.43561218 289.32394409 199.43539429 C286.37840785 199.37783105 284.06616424 199.32633233 281.49430847 197.80445862 C280.08331539 195.25171914 280.12841388 193.32434819 280.14770508 190.41137695 C280.14793167 189.27042068 280.14815826 188.12946442 280.14839172 186.95393372 C280.16387558 185.72261215 280.17935944 184.49129059 280.1953125 183.22265625 C280.19955734 181.96172653 280.20380219 180.70079681 280.20817566 179.4016571 C280.22213498 176.05262557 280.24908021 172.70420742 280.2822876 169.35534668 C280.3130002 165.93682147 280.32668349 162.51823285 280.34179688 159.09960938 C280.37490902 152.39436151 280.42514107 145.68940367 280.48828125 138.984375 C279.19410278 139.00794067 279.19410278 139.00794067 277.8737793 139.03198242 C274.67018858 139.08313455 271.4668061 139.1207366 268.26293945 139.14916992 C266.87680206 139.16424897 265.49071231 139.1847155 264.10473633 139.21069336 C262.11169979 139.24711216 260.11831402 139.26250518 258.125 139.27734375 C256.32615356 139.30090942 256.32615356 139.30090942 254.4909668 139.32495117 C251.48828125 138.984375 251.48828125 138.984375 249.59179688 137.59375 C247.54684729 134.61138105 248.3159425 131.48859629 248.48828125 127.984375 C247.90046875 128.10554688 247.31265625 128.22671875 246.70703125 128.3515625 C235.40371875 130.4628134 223.94343466 131.16614976 212.48828125 131.984375 C211.66360352 132.04512207 210.83892578 132.10586914 209.98925781 132.16845703 C176.97839314 134.51039682 134.57689747 137.30574681 102.48828125 127.984375 C102.55015625 129.2425 102.61203125 130.500625 102.67578125 131.796875 C102.79781756 134.27828004 102.80168214 135.52730892 101.38476562 137.59375 C98.56706539 139.65987005 96.3099644 139.32265033 92.8515625 139.27734375 C91.55283203 139.26767578 90.25410156 139.25800781 88.91601562 139.24804688 C87.54426486 139.22298085 86.17252007 139.19758601 84.80078125 139.171875 C83.41733201 139.1568252 82.03386724 139.1431373 80.65039062 139.13085938 C77.26262918 139.09544723 73.87564986 139.04605554 70.48828125 138.984375 C70.498274 140.04553276 70.498274 140.04553276 70.50846863 141.12812805 C70.56856822 147.79356396 70.61424964 154.4589243 70.64371777 161.12456989 C70.65937699 164.55150723 70.68061929 167.97822077 70.71459961 171.4050293 C70.75341639 175.34421108 70.76798841 179.28330209 70.78125 183.22265625 C70.79673386 184.45397781 70.81221771 185.68529938 70.82817078 186.95393372 C70.82851067 188.66536812 70.82851067 188.66536812 70.82885742 190.41137695 C70.83885017 191.92028252 70.83885017 191.92028252 70.8490448 193.45967102 C70.48828125 195.984375 70.48828125 195.984375 69.46836853 197.79553223 C66.32693786 199.68164461 63.03334851 199.51261777 59.46630859 199.57885742 C58.64771362 199.60499619 57.82911865 199.63113495 56.98571777 199.6580658 C54.26530964 199.73781148 51.54537198 199.79222981 48.82421875 199.83984375 C47.88730824 199.85706293 46.95039772 199.87428211 45.98509598 199.89202309 C41.00269175 199.97821466 36.02050358 200.04130346 31.03759766 200.08959961 C26.95838906 200.13365171 22.88439253 200.22328997 18.80712891 200.35620117 C-5.45658533 201.12940938 -23.88688052 201.4507023 -43.00311279 185.03115845 C-46.51449528 182.1662049 -50.30282706 179.85513772 -54.17642212 177.51457214 C-56.38022846 176.07053368 -57.90078495 175.05333268 -59.51171875 172.984375 C-59.89762211 170.34906197 -59.89762211 170.34906197 -59.91285706 167.11453247 C-59.92565201 165.88916779 -59.93844696 164.6638031 -59.95162964 163.40130615 C-59.95058107 162.04113741 -59.94919646 160.68096889 -59.94750977 159.32080078 C-59.95648516 157.89005746 -59.96669289 156.45932142 -59.9780426 155.02859497 C-60.0045705 151.14009241 -60.01157724 147.25178782 -60.01348996 143.36320353 C-60.01633743 140.11766427 -60.02737258 136.87217122 -60.03800625 133.62664974 C-60.06244321 125.96933777 -60.0697587 118.31213163 -60.06762695 110.65478516 C-60.06582467 102.75487154 -60.0974769 94.85557255 -60.14485794 86.95581448 C-60.18408257 80.17438619 -60.20017874 73.39315879 -60.19826072 66.61161792 C-60.19749564 62.56083704 -60.20605446 58.51060217 -60.23779488 54.45993423 C-60.26683704 50.64949405 -60.26707951 46.84012181 -60.24524498 43.02964401 C-60.24210697 41.63202607 -60.2491999 40.23434168 -60.26732635 38.83683777 C-60.39540719 28.2772847 -60.39540719 28.2772847 -58.20469475 25.07209015 C-56.60386658 23.70962524 -56.60386658 23.70962524 -53.51171875 21.984375 C-52.7846875 21.48067383 -52.05765625 20.97697266 -51.30859375 20.45800781 C-50.633125 20.03874023 -49.95765625 19.61947266 -49.26171875 19.1875 C-48.09962891 18.46046875 -48.09962891 18.46046875 -46.9140625 17.71875 C-46.12128906 17.22890625 -45.32851563 16.7390625 -44.51171875 16.234375 C-42.94875592 15.26115957 -41.38626953 14.28717864 -39.82421875 13.3125 C-38.62295097 12.58661682 -38.62295097 12.58661682 -37.39741516 11.84606934 C-34.45040994 10.00982123 -34.45040994 10.00982123 -31.65153503 7.72521973 C-21.33972186 0.00774867 -12.57912316 -0.26214201 0 0 Z M-8.51171875 14.984375 C-8.51171875 71.084375 -8.51171875 127.184375 -8.51171875 184.984375 C12.60828125 184.984375 33.72828125 184.984375 55.48828125 184.984375 C55.48828125 128.884375 55.48828125 72.784375 55.48828125 14.984375 C34.36828125 14.984375 13.24828125 14.984375 -8.51171875 14.984375 Z M294.48828125 14.984375 C294.48828125 71.084375 294.48828125 127.184375 294.48828125 184.984375 C315.93828125 184.984375 337.38828125 184.984375 359.48828125 184.984375 C359.48828125 128.884375 359.48828125 72.784375 359.48828125 14.984375 C338.03828125 14.984375 316.58828125 14.984375 294.48828125 14.984375 Z M374.48828125 21.984375 C374.48828125 73.464375 374.48828125 124.944375 374.48828125 177.984375 C378.44828125 176.004375 378.44828125 176.004375 382.48828125 173.984375 C383.73310776 173.54100296 384.97793427 173.09763092 386.26048279 172.64082336 C390.61014248 170.70731153 393.82642487 169.01181078 396.48828125 164.984375 C399.14169 156.43366488 398.59974713 147.08520634 398.53349614 138.21622634 C398.51998909 135.36085508 398.54939483 132.50654602 398.57825655 129.6513384 C398.64537977 122.90752915 398.63986339 116.16647517 398.58813477 109.42260742 C398.53620356 102.49216542 398.60468208 95.57036769 398.73329073 88.64111823 C398.83997485 82.66737092 398.87199941 76.69632533 398.84534734 70.72168809 C398.8301338 67.1634814 398.84170201 63.61090179 398.92506599 60.0535183 C399.77982762 45.53269781 399.77982762 45.53269781 394.55942917 32.59308243 C388.65847814 27.45123193 381.84704908 24.43729761 374.48828125 21.984375 Z M-28.44140625 24.3203125 C-29.23675781 24.80757812 -30.03210938 25.29484375 -30.8515625 25.796875 C-31.68816406 26.3125 -32.52476563 26.828125 -33.38671875 27.359375 C-34.21558594 27.86726563 -35.04445313 28.37515625 -35.8984375 28.8984375 C-39.13527311 30.88550944 -42.35109302 32.87729118 -45.51171875 34.984375 C-46.01305078 37.31423271 -46.01305078 37.31423271 -46.00033569 40.07943726 C-46.03191772 41.15868469 -46.06349976 42.23793213 -46.09603882 43.34988403 C-46.11510284 44.53943695 -46.13416687 45.72898987 -46.15380859 46.95458984 C-46.18476624 48.20357056 -46.21572388 49.45255127 -46.24761963 50.73937988 C-46.34279922 54.89125177 -46.41274601 59.04281788 -46.47265625 63.1953125 C-46.48319676 63.90272221 -46.49373727 64.61013192 -46.50459719 65.33897829 C-46.60264655 72.01799155 -46.68746902 78.69706302 -46.74254417 85.37657738 C-46.81378202 93.90539412 -46.94805311 102.42792597 -47.16989362 110.95419157 C-47.32072922 116.956869 -47.39772026 122.95786041 -47.42141116 128.96236956 C-47.43751884 132.54508918 -47.48503943 136.12063454 -47.61228561 139.70127487 C-48.69277994 154.33834682 -48.69277994 154.33834682 -43.59986115 167.38648224 C-37.70298463 172.55325229 -30.8783289 175.52883828 -23.51171875 177.984375 C-23.51171875 126.504375 -23.51171875 75.024375 -23.51171875 21.984375 C-25.36592288 21.984375 -26.90525276 23.37704845 -28.44140625 24.3203125 Z M70.48828125 74.984375 C70.48828125 91.484375 70.48828125 107.984375 70.48828125 124.984375 C76.42828125 124.984375 82.36828125 124.984375 88.48828125 124.984375 C88.48828125 108.484375 88.48828125 91.984375 88.48828125 74.984375 C82.54828125 74.984375 76.60828125 74.984375 70.48828125 74.984375 Z M262.48828125 74.984375 C262.48828125 91.484375 262.48828125 107.984375 262.48828125 124.984375 C268.42828125 124.984375 274.36828125 124.984375 280.48828125 124.984375 C280.48828125 108.484375 280.48828125 91.984375 280.48828125 74.984375 C274.54828125 74.984375 268.60828125 74.984375 262.48828125 74.984375 Z M102.48828125 86.984375 C102.48828125 95.564375 102.48828125 104.144375 102.48828125 112.984375 C151.2999604 119.65429389 199.6766021 119.65429389 248.48828125 112.984375 C248.48828125 104.404375 248.48828125 95.824375 248.48828125 86.984375 C199.6766021 80.31445611 151.2999604 80.31445611 102.48828125 86.984375 Z " fill="#27276C" transform="translate(80.51171875,1.015625)"/>
<path d="M0 0 C0.82341385 -0.02292618 1.6468277 -0.04585236 2.49519348 -0.06947327 C5.23007318 -0.13896642 7.96447022 -0.18366366 10.69995117 -0.22241211 C12.11093362 -0.24449643 12.11093362 -0.24449643 13.55042076 -0.2670269 C18.54885774 -0.34144451 23.54706111 -0.39441426 28.54589844 -0.43261719 C32.64507361 -0.46786798 36.74017313 -0.5438034 40.83789062 -0.65820312 C83.56554586 -1.82551163 83.56554586 -1.82551163 99.93302917 12.84727478 C103.07876921 15.54900986 106.56983564 17.62439953 110.11791992 19.75024414 C117.03953318 24.12751589 117.03953318 24.12751589 118.93041992 26.56274414 C119.31632328 29.19805717 119.31632328 29.19805717 119.33155823 32.43258667 C119.34435318 33.65795135 119.35714813 34.88331604 119.37033081 36.14581299 C119.36928224 37.50598173 119.36789764 38.86615025 119.36621094 40.22631836 C119.37518633 41.65706168 119.38539406 43.08779772 119.39674377 44.51852417 C119.42327167 48.40702673 119.43027841 52.29533132 119.43219113 56.18391562 C119.4350386 59.42945487 119.44607375 62.67494792 119.45670742 65.9204694 C119.48114439 73.57778137 119.48845987 81.23498751 119.48632812 88.89233398 C119.48452584 96.79224761 119.51617807 104.69154659 119.56355911 112.59130466 C119.60278374 119.37273295 119.61887991 126.15396035 119.6169619 132.93550122 C119.61619681 136.9862821 119.62475563 141.03651697 119.65649605 145.08718491 C119.68553821 148.89762509 119.68578069 152.70699733 119.66394615 156.51747513 C119.66080814 157.91509307 119.66790107 159.31277746 119.68602753 160.71028137 C119.81403486 171.26377444 119.81403486 171.26377444 117.63475132 174.46745872 C116.04275513 175.82403564 116.04275513 175.82403564 112.93041992 177.56274414 C111.67998901 178.42488525 111.67998901 178.42488525 110.40429688 179.30444336 C109.58405029 179.82022949 108.76380371 180.33601562 107.91870117 180.86743164 C106.99508789 181.45137695 106.07147461 182.03532227 105.11987305 182.63696289 C104.17047852 183.2312207 103.22108398 183.82547852 102.24291992 184.43774414 C100.84783203 185.3175293 100.84783203 185.3175293 99.42456055 186.21508789 C97.65214801 187.33282552 95.87862588 188.44880752 94.10351562 189.56225586 C91.0245666 191.40396289 91.0245666 191.40396289 88.83712769 193.31680298 C79.77244176 200.28385366 70.6215211 199.51542024 59.71166992 199.35180664 C57.76160226 199.3463559 55.81152546 199.34358273 53.8614502 199.34335327 C49.79641249 199.33566157 45.73246748 199.30487149 41.66772461 199.25561523 C36.45431952 199.19302246 31.2419509 199.17476357 26.02820587 199.1718235 C22.01161551 199.16713015 17.99524592 199.14636617 13.97874451 199.11994553 C12.05539237 199.1078824 10.13201612 199.09918105 8.20863342 199.09389114 C5.53019334 199.08270601 2.85274938 199.0516027 0.17456055 199.0144043 C-0.62023712 199.01419281 -1.41503479 199.01398132 -2.23391724 199.01376343 C-7.50442065 198.91076444 -7.50442065 198.91076444 -9.77249336 197.51410484 C-11.77172708 194.5064215 -11.48226353 191.42434213 -11.45053101 187.93310547 C-11.45521098 187.14861684 -11.45989095 186.36412821 -11.46471274 185.5558672 C-11.47670972 182.91866626 -11.46718733 180.28198048 -11.45776367 177.64477539 C-11.46182729 175.75759578 -11.46716798 173.87041855 -11.47369385 171.98324585 C-11.48739822 166.85109527 -11.48205593 161.71912512 -11.47255659 156.58697128 C-11.46497614 151.22317763 -11.4720011 145.85939971 -11.47671509 140.49560547 C-11.48217736 131.48703225 -11.47496867 122.47853274 -11.46069336 113.4699707 C-11.44436596 103.04585646 -11.44965414 92.62191824 -11.46617258 82.19780827 C-11.47977402 73.25763216 -11.48171368 64.31750912 -11.47385657 55.37732601 C-11.46917267 50.03347322 -11.46857486 44.68970323 -11.47846603 39.34585571 C-11.48711391 34.32257447 -11.48115374 29.29952078 -11.46378326 24.27626419 C-11.45980675 22.42953495 -11.46097228 20.58278665 -11.46757126 18.73606491 C-11.47573101 16.22124315 -11.46553323 13.70715728 -11.45053101 11.19238281 C-11.45722317 10.45610562 -11.46391534 9.71982843 -11.47081029 8.96123981 C-11.43728957 6.07787431 -11.39528396 4.05026089 -9.76786709 1.61432743 C-6.79041427 -0.22931832 -3.40381201 0.04906991 0 0 Z M2.93041992 14.56274414 C2.93041992 70.66274414 2.93041992 126.76274414 2.93041992 184.56274414 C24.38041992 184.56274414 45.83041992 184.56274414 67.93041992 184.56274414 C67.93041992 128.46274414 67.93041992 72.36274414 67.93041992 14.56274414 C46.48041992 14.56274414 25.03041992 14.56274414 2.93041992 14.56274414 Z M82.93041992 21.56274414 C82.93041992 73.04274414 82.93041992 124.52274414 82.93041992 177.56274414 C86.89041992 175.58274414 86.89041992 175.58274414 90.93041992 173.56274414 C92.17524643 173.1193721 93.42007294 172.67600006 94.70262146 172.2191925 C99.05228115 170.28568067 102.26856354 168.59017992 104.93041992 164.56274414 C107.58382867 156.01203402 107.0418858 146.66357548 106.97563481 137.79459548 C106.96212776 134.93922422 106.99153351 132.08491516 107.02039522 129.22970754 C107.08751844 122.48589829 107.08200206 115.74484431 107.03027344 109.00097656 C106.97834223 102.07053456 107.04682076 95.14873683 107.1754294 88.21948737 C107.28211353 82.24574006 107.31413808 76.27469447 107.28748602 70.30005723 C107.27227247 66.74185054 107.28384069 63.18927093 107.36720467 59.63188744 C108.22196629 45.11106695 108.22196629 45.11106695 103.00156784 32.17145157 C97.10061681 27.02960107 90.28918775 24.01566675 82.93041992 21.56274414 Z " fill="#26266C" transform="translate(372.069580078125,1.437255859375)"/>
<path d="M0 0 C4.07551947 -0.06890359 8.14955368 -0.12862357 12.2253418 -0.16479492 C13.61147919 -0.17987397 14.99756894 -0.2003405 16.38354492 -0.22631836 C18.37658146 -0.26273716 20.36996723 -0.27813018 22.36328125 -0.29296875 C23.56251221 -0.3086792 24.76174316 -0.32438965 25.99731445 -0.34057617 C29 0 29 0 30.89648438 1.390625 C32.94143396 4.37299395 32.17233875 7.49577871 32 11 C32.5878125 10.87882812 33.175625 10.75765625 33.78125 10.6328125 C45.0845625 8.5215616 56.54484659 7.81822524 68 7 C69.2370166 6.90887939 69.2370166 6.90887939 70.49902344 6.81591797 C148.78571896 1.26190632 148.78571896 1.26190632 178 11 C177.938125 9.741875 177.87625 8.48375 177.8125 7.1875 C177.69046369 4.70609496 177.68659911 3.45706608 179.10351562 1.390625 C181.92121586 -0.67549505 184.17831685 -0.33827533 187.63671875 -0.29296875 C188.93544922 -0.28330078 190.23417969 -0.27363281 191.57226562 -0.26367188 C192.94401639 -0.23860585 194.31576118 -0.21321101 195.6875 -0.1875 C197.07094924 -0.1724502 198.45441401 -0.1587623 199.83789062 -0.14648438 C203.22542726 -0.11107458 206.61276237 -0.05726701 210 0 C210 4.62 210 9.24 210 14 C204.06 14 198.12 14 192 14 C192 30.5 192 47 192 64 C197.94 64 203.88 64 210 64 C210 68.62 210 73.24 210 78 C205.92448053 78.06890359 201.85044632 78.12862357 197.7746582 78.16479492 C196.38852081 78.17987397 195.00243106 78.2003405 193.61645508 78.22631836 C191.62341854 78.26273716 189.63003277 78.27813018 187.63671875 78.29296875 C186.43748779 78.3086792 185.23825684 78.32438965 184.00268555 78.34057617 C181 78 181 78 179.10351562 76.609375 C177.05856604 73.62700605 177.82766125 70.50422129 178 67 C177.4121875 67.12117188 176.824375 67.24234375 176.21875 67.3671875 C164.9154375 69.4784384 153.45515341 70.18177476 142 71 C141.17532227 71.06074707 140.35064453 71.12149414 139.50097656 71.18408203 C106.49011189 73.52602182 64.08861622 76.32137181 32 67 C32.061875 68.258125 32.12375 69.51625 32.1875 70.8125 C32.30953631 73.29390504 32.31340089 74.54293392 30.89648438 76.609375 C28.07878414 78.67549505 25.82168315 78.33827533 22.36328125 78.29296875 C21.06455078 78.28330078 19.76582031 78.27363281 18.42773438 78.26367188 C17.05598361 78.23860585 15.68423882 78.21321101 14.3125 78.1875 C12.92905076 78.1724502 11.54558599 78.1587623 10.16210938 78.14648438 C6.77457274 78.11107458 3.38723763 78.05726701 0 78 C0 73.38 0 68.76 0 64 C5.94 64 11.88 64 18 64 C18 47.5 18 31 18 14 C12.06 14 6.12 14 0 14 C0 9.38 0 4.76 0 0 Z M32 26 C32 34.58 32 43.16 32 52 C80.81167915 58.66991889 129.18832085 58.66991889 178 52 C178 43.42 178 34.84 178 26 C129.18832085 19.33008111 80.81167915 19.33008111 32 26 Z " fill="#FD5B6F" transform="translate(151,62)"/>
</svg>
